<?xml version="1.0" encoding="UTF-8"?>
<svg width="512" height="512" viewBox="0 0 512 512" fill="none" xmlns="http://www.w3.org/2000/svg">
  <rect width="512" height="512" fill="#121212"/>
  <circle cx="256" cy="256" r="200" fill="#FF3D00"/>
  <path d="M256 156C306.81 156 348 197.19 348 248C348 298.81 306.81 340 256 340C205.19 340 164 298.81 164 248C164 197.19 205.19 156 256 156ZM256 188C222.86 188 196 214.86 196 248C196 281.14 222.86 308 256 308C289.14 308 316 281.14 316 248C316 214.86 289.14 188 256 188Z" fill="white"/>
  <path d="M256 216C273.67 216 288 230.33 288 248C288 265.67 273.67 280 256 280C238.33 280 224 265.67 224 248C224 230.33 238.33 216 256 216Z" fill="#FFD600"/>
</svg>
